<?xml version="1.0" encoding="UTF-8" standalone="no"?>
<!-- Created with Inkscape (http://www.inkscape.org/) -->

<svg
   width="5mm"
   height="5mm"
   viewBox="0 0 5 5"
   version="1.1"
   id="svg325"
   xml:space="preserve"
   inkscape:version="1.2.2 (b0a8486541, 2022-12-01)"
   sodipodi:docname="fiducial.svg"
   xmlns:inkscape="http://www.inkscape.org/namespaces/inkscape"
   xmlns:sodipodi="http://sodipodi.sourceforge.net/DTD/sodipodi-0.dtd"
   xmlns="http://www.w3.org/2000/svg"
   xmlns:svg="http://www.w3.org/2000/svg"><sodipodi:namedview
     id="namedview327"
     pagecolor="#505050"
     bordercolor="#eeeeee"
     borderopacity="1"
     inkscape:showpageshadow="0"
     inkscape:pageopacity="0"
     inkscape:pagecheckerboard="0"
     inkscape:deskcolor="#505050"
     inkscape:document-units="mm"
     showgrid="false"
     showguides="true"
     inkscape:zoom="41.789856"
     inkscape:cx="10.229755"
     inkscape:cy="3.134732"
     inkscape:window-width="2560"
     inkscape:window-height="1364"
     inkscape:window-x="0"
     inkscape:window-y="0"
     inkscape:window-maximized="1"
     inkscape:current-layer="layer1"><sodipodi:guide
       position="99.999997,-85.538458"
       orientation="-1,0"
       id="guide446"
       inkscape:locked="false"
       inkscape:label=""
       inkscape:color="rgb(0,134,229)" /><sodipodi:guide
       position="69.102561,-94.999998"
       orientation="0,1"
       id="guide448"
       inkscape:locked="false"
       inkscape:label=""
       inkscape:color="rgb(0,134,229)" /><sodipodi:guide
       position="98.681365,-94.999998"
       orientation="0,1"
       id="guide515"
       inkscape:locked="false"
       inkscape:label=""
       inkscape:color="rgb(0,134,229)" /><sodipodi:guide
       position="99.006959,-95.099998"
       orientation="0,1"
       id="guide517"
       inkscape:locked="false"
       inkscape:label=""
       inkscape:color="rgb(0,134,229)" /><sodipodi:guide
       position="98.799997,-94.899998"
       orientation="0,1"
       id="guide519"
       inkscape:locked="false"
       inkscape:label=""
       inkscape:color="rgb(0,134,229)" /><sodipodi:guide
       position="99.899997,-94.174258"
       orientation="-1,0"
       id="guide521"
       inkscape:locked="false"
       inkscape:label=""
       inkscape:color="rgb(0,134,229)" /><sodipodi:guide
       position="100.1,-94.305638"
       orientation="-1,0"
       id="guide523"
       inkscape:locked="false"
       inkscape:label=""
       inkscape:color="rgb(0,134,229)" /><sodipodi:guide
       position="0.069999998,3.9692479"
       orientation="-1,0"
       id="guide434"
       inkscape:locked="false"
       inkscape:label=""
       inkscape:color="rgb(0,134,229)" /><sodipodi:guide
       position="-0.069999998,4.6903319"
       orientation="-1,0"
       id="guide436"
       inkscape:locked="false"
       inkscape:label=""
       inkscape:color="rgb(0,134,229)" /><sodipodi:guide
       position="0.96439455,5.0699999"
       orientation="0,1"
       id="guide438"
       inkscape:locked="false"
       inkscape:label=""
       inkscape:color="rgb(0,134,229)" /><sodipodi:guide
       position="1.18804,4.9299999"
       orientation="0,1"
       id="guide440"
       inkscape:locked="false"
       inkscape:label=""
       inkscape:color="rgb(0,134,229)" /></sodipodi:namedview><defs
     id="defs322" /><g
     inkscape:label="Layer 1"
     inkscape:groupmode="layer"
     id="layer1"><g
       id="g488"><path
         id="path408"
         style="fill:#070000;fill-opacity:1;stroke:#000000;stroke-width:0;stroke-dasharray:none;stroke-opacity:1"
         d="M 0,-2.502175 A 2.5240123,2.5022304 0 0 0 -2.523879,0 2.5240123,2.5022304 0 0 0 0,2.50217 2.5240123,2.5022304 0 0 0 2.52387,0 2.5240123,2.5022304 0 0 0 0,-2.502175 Z m 0,0.861963 A 1.6401334,1.6401334 0 0 1 1.64021,0 1.6401334,1.6401334 0 0 1 0,1.64021 1.6401334,1.6401334 0 0 1 -1.640212,0 1.6401334,1.6401334 0 0 1 0,-1.640212 Z" /><path
         id="path408-3-3"
         style="fill:#000000;fill-opacity:1;stroke:#ff0000;stroke-width:0;stroke-dasharray:none;stroke-opacity:1"
         d="m -0.100255,-1.188044 a 1.1928242,1.1928244 0 0 0 -1.087789,1.087789 h 0.751893 a 0.44730908,0.44730911 0 0 1 0.335896,-0.335896 z m 0.199985,0 v 0.751893 a 0.44730908,0.44730911 0 0 1 0.3359,0.335896 H 1.18804 A 1.1928242,1.1928244 0 0 0 0.09973,-1.188044 Z M -1.188044,0.09973 a 1.1928242,1.1928244 0 0 0 1.087789,1.08831 V 0.43563 a 0.44730908,0.44730911 0 0 1 -0.335896,-0.3359 z m 1.623674,0 a 0.44730908,0.44730911 0 0 1 -0.3359,0.3359 V 1.18804 A 1.1928242,1.1928244 0 0 0 1.18804,0.09973 Z" /><rect
         style="fill:#000000;fill-opacity:1;stroke:#000000;stroke-width:0;stroke-dasharray:none;stroke-opacity:1"
         id="rect1252"
         width="0.13999954"
         height="0.87178099"
         x="-0.069999538"
         y="-0.43615043" /><rect
         style="fill:#000000;fill-opacity:1;stroke:#000000;stroke-width:0;stroke-dasharray:none;stroke-opacity:1"
         id="rect1254"
         width="0.87178093"
         height="0.14"
         x="-0.4361504"
         y="-0.070000038" /></g></g></svg>
