<?xml version="1.0" encoding="UTF-8" standalone="no"?>
<!DOCTYPE svg PUBLIC "-//W3C//DTD SVG 1.1//EN" "http://www.w3.org/Graphics/SVG/1.1/DTD/svg11.dtd">
<svg width="100%" height="100%" viewBox="0 0 414 112" version="1.1" xmlns="http://www.w3.org/2000/svg" xmlns:xlink="http://www.w3.org/1999/xlink" xml:space="preserve" style="fill-rule:evenodd;clip-rule:evenodd;stroke-linejoin:round;stroke-miterlimit:1.41421;">
    <g transform="matrix(2,0,0,2,0,0)">
        <g transform="matrix(1.63072,0,0,1.63072,-0.917282,-0.288004)">
            <path d="M44.1,14.9C44.2,14.9 44.4,14.8 44.5,14.8L51.6,14.8L51.6,17.5C51.6,19.1 52.7,20.3 54.2,20.6C54.5,20.7 54.8,20.6 55.1,20.6C55.7,20.6 56.3,20.6 57,20.6C57.5,20.6 58,20.3 58.1,19.7C58.1,19.2 58.2,18.6 58.2,18.1L58.2,14.9C58.2,14.8 58.2,14.8 58.2,14.7C58.3,14.7 58.4,14.6 58.5,14.6L65.3,14.6C65.6,14.6 65.7,14.7 65.7,15C65.7,15.7 65.7,16.4 65.7,17C65.7,17.8 65.7,18.6 65.8,19.5C65.8,20.1 66.3,20.5 66.9,20.6C67.8,20.6 68.7,20.7 69.5,20.5C70.6,20.3 71.4,19.6 71.9,18.6C72.2,17.9 72.1,17.3 72.1,16.6C72.1,16.1 72.1,15.6 72.1,15.1C72.1,14.8 72.1,14.7 72.5,14.7L79.4,14.7C79.7,14.7 79.8,14.8 79.8,15.1C79.8,16.4 79.9,17.6 79.7,18.9C79.5,19.9 79.2,20.9 78.7,21.9C78.2,22.9 77.5,23.8 76.7,24.6C75.9,25.4 75,26 74,26.4C72.7,27 71.4,27.2 70,27.3L53.8,27.3C51.9,27.3 50.2,26.7 48.6,25.7C46.8,24.5 45.6,22.9 44.9,21C44.5,19.9 44.3,18.8 44.2,17.7C44.2,16.8 44.2,15.9 44.1,15.1C44,15.1 44,15 44.1,14.9Z"/>
            <path d="M127.5,14.8C127.5,15.2 127.5,15.5 127.4,15.8C127.2,16.9 127,18.1 126.6,19.1C126.1,20.3 125.5,21.5 124.7,22.5C123.5,24.1 122,25.3 120.3,26.3C119,27 117.7,27.5 116.2,27.8C114.8,28.1 113.3,28.2 111.9,28.1C110.6,28 109.4,27.8 108.2,27.4C107.5,27.2 106.8,26.9 106.1,26.6C106,26.6 106,26.6 105.9,26.5C104.1,25.5 102.5,24.3 101.2,22.7C100.5,21.9 100,21 99.5,20C98.9,18.7 98.4,17.4 98.3,16C98.3,15.6 98.2,15.3 98.2,14.9C98.2,14.8 98.2,14.7 98.2,14.6L105.6,14.6C105.9,14.6 105.9,14.6 106,15C106.2,15.9 106.4,16.8 106.9,17.5C107.7,18.8 108.8,19.8 110.3,20.3C111.8,20.8 113.2,20.9 114.7,20.4C115.5,20.1 116.3,19.7 116.9,19.2C118.1,18.2 118.9,16.9 119.2,15.4C119.2,15.3 119.2,15.1 119.2,15C119.3,14.6 119.3,14.6 119.7,14.6L126.6,14.6C127.1,14.8 127.3,14.8 127.5,14.8Z"/>
            <path d="M127.4,13C127.2,13 127.1,13.1 126.9,13.1C126,13.1 125,13.1 124.1,13.1C123,13.1 121.9,13.2 120.8,13.2C120.4,13.2 120,13.2 119.6,13.1C119.4,13.1 119.4,12.9 119.3,12.8C119.1,12.3 119,11.9 118.8,11.4C118.5,10.9 118.2,10.5 117.9,10C117.4,9.4 116.7,8.9 116,8.5C115.7,8.3 115.4,8.2 115,8.1C113.6,7.6 112.2,7.6 110.7,8C109.8,8.3 109,8.6 108.3,9.2C107.4,9.9 106.8,10.8 106.4,11.8C106.3,12.1 106.2,12.4 106.1,12.7C106,13 106,13.1 105.7,13.1L98.6,13.1C98.3,13.1 98.2,13 98.3,12.7C98.4,11.6 98.6,10.6 99,9.6C99.2,9.1 99.4,8.7 99.6,8.2C100,7.4 100.5,6.6 101,5.9C101.6,5.1 102.2,4.4 102.9,3.8C103.8,3 104.8,2.3 105.9,1.8C107.2,1.2 108.6,0.7 110.1,0.5C111.3,0.3 112.5,0.2 113.8,0.3C115.4,0.4 116.9,0.7 118.4,1.2C119.7,1.7 121,2.3 122.1,3.2C122.9,3.8 123.6,4.4 124.2,5.1C124.7,5.7 125.2,6.4 125.6,7C126.2,7.9 126.6,8.9 127,10C127.3,10.9 127.4,11.8 127.5,12.7C127.4,12.9 127.4,12.9 127.4,13Z"/>
            <path d="M4,14.8L23.1,14.8C23.4,14.8 23.5,14.9 23.5,15.2C23.5,15.5 23.5,15.7 23.5,16C23.5,16.7 23,17.4 22.2,17.4L10.1,17.4C9.5,17.4 9.1,17.9 9.2,18.5C9.3,18.8 9.4,19.1 9.7,19.3C10.4,20 11.3,20.5 12.3,20.7C12.7,20.8 13.2,20.9 13.6,21L22.2,21C22.6,21 23,21.1 23.3,21.3C23.6,21.5 23.9,21.8 23.9,22.2L23.9,25.5C23.9,25.9 23.9,26.3 23.8,26.6C23.7,27.2 23.1,27.9 22.1,27.8L17.5,27.8C16.2,27.8 14.9,27.9 13.6,27.8C11.9,27.7 10.3,27.3 8.8,26.7C7.2,25.9 5.9,25 4.8,24C4,23.3 3.4,22.4 2.8,21.5C2.1,20.5 1.6,19.3 1.3,18.2C1.1,17.5 0.9,16.7 0.8,15.9C0.7,15.6 0.7,15.4 0.7,15.1C0.7,14.8 0.8,14.7 1.1,14.7C2.1,14.7 3,14.7 4,14.8C4,14.7 4,14.7 4,14.8Z"/>
            <path d="M17.6,0.8C19,0.8 20.4,0.8 21.8,0.8C22,0.8 22.2,0.8 22.4,0.9C23.2,1 23.7,1.6 23.8,2.4L23.8,5.9C23.9,6.8 23.2,7.6 22.3,7.6L15.3,7.6C14.6,7.6 13.9,7.6 13.2,7.7C12.1,7.9 11.1,8.2 10.3,9C10,9.3 10,9.8 10.2,10.1C10.3,10.4 10.6,10.5 10.9,10.5L19.7,10.5C20.6,10.5 21.5,10.5 22.4,10.6C23.1,10.7 23.3,11 23.4,11.7C23.5,12 23.4,12.4 23.4,12.8C23.4,13.1 23.3,13.1 23,13.1C21.7,13.1 20.4,13.1 19.1,13.1C18,13.1 17,13.1 15.9,13.2L7.7,13.2C6.5,13.2 5.4,13.2 4.2,13.1L0.9,13.1C0.6,13.1 0.5,13.1 0.6,12.7C0.7,11.4 1,10.1 1.6,9C2.4,7.4 3.3,6 4.4,4.8C5.5,3.6 6.9,2.7 8.4,2C9.5,1.5 10.7,1.1 11.9,0.9C13.3,0.7 14.8,0.8 16.2,0.7C16.7,0.8 17.2,0.8 17.6,0.8L17.6,0.8Z"/>
            <path d="M32.1,14.8C33.3,14.8 34.4,14.8 35.6,14.8C36,14.8 36,14.8 36,15.2C36,16 36,16.9 36,17.7C36,18.3 36.1,19 36.4,19.6C36.8,20.3 37.4,20.7 38.2,20.8C39,20.9 39.8,20.8 40.5,20.8C40.8,20.8 41.1,20.8 41.3,20.9C41.8,21.1 42.1,21.4 42.2,21.9C42.3,22.2 42.3,22.5 42.3,22.8C42.3,23.3 42.3,23.8 42.2,24.3C42.2,24.8 42.2,25.2 42.2,25.7C42.2,26.7 41.5,27.6 40.5,27.6C39.4,27.6 38.3,27.7 37.3,27.6C35.9,27.5 34.5,27.2 33.2,26.5C32.4,26.1 31.7,25.6 31.1,25C30.4,24.3 29.8,23.5 29.4,22.6C29.3,22.3 29.1,22 29,21.7C28.6,20.6 28.4,19.5 28.4,18.4C28.4,17.4 28.4,16.4 28.3,15.4C28.3,14.9 28.3,14.9 28.8,14.9C29.8,14.8 31,14.8 32.1,14.8L32.1,14.8Z"/>
            <path d="M88.1,13.1C87.1,13.1 86.1,13.1 85.1,13.1C84.4,13.1 84.4,13.2 84.4,12.4C84.4,11.6 84.4,10.8 84.4,10C84.4,8.3 84.8,6.7 85.7,5.3C86.4,4.2 87.2,3.3 88.3,2.5C89,2 89.7,1.7 90.4,1.4C91.2,1.1 92,1 92.8,1L96.6,1C97.2,1 97.7,1.2 98,1.7C98,1.8 98.1,1.9 98.1,2C98.1,2.4 98.2,2.8 98.2,3.2C98.2,3.9 98.2,4.6 98.2,5.3C98.2,5.8 98.3,6.3 98,6.8C97.7,7.3 97.3,7.6 96.8,7.6C96,7.7 95.2,7.7 94.5,7.7C93,7.6 92,8.8 92,10.1C92,11 92,11.8 92,12.7C92,13.1 92,13.1 91.6,13.1C91,13.1 90.5,13.1 89.9,13.1C89.2,13.2 88.7,13.2 88.1,13.1L88.1,13.1Z"/>
            <path d="M91.9,20.6L91.9,25.7C91.9,26.2 91.8,26.7 91.4,27.1C91.2,27.3 90.9,27.5 90.6,27.5L86.3,27.5C85.4,27.5 84.8,27.3 84.5,26.6C84.4,26.3 84.3,25.8 84.3,25.5L84.3,15.3C84.3,15 84.3,14.9 84.7,14.9L91.4,14.9C91.7,14.9 91.8,15 91.8,15.3C91.8,15.9 91.8,16.6 91.8,17.2C91.9,18.3 91.9,19.4 91.9,20.6L91.9,20.6Z"/>
            <path d="M35.9,7L35.9,11.7C35.9,12.1 35.9,12.4 35.8,12.8C35.8,13 35.6,13 35.5,13L28.8,13L28.7,13C28.3,13 28.2,12.9 28.2,12.5L28.2,4.7C28.2,3.9 28.2,3.1 28.3,2.2C28.4,1.3 29.2,0.7 30.1,0.7C31.3,0.7 32.5,0.7 33.8,0.7C34.1,0.7 34.3,0.7 34.6,0.8C35.4,0.9 35.9,1.5 36,2.4C36,3.4 36,4.4 36,5.4C35.9,6 35.9,6.5 35.9,7L35.9,7Z"/>
            <path d="M47.9,13.1C46.8,13.1 45.7,13.1 44.6,13.1C44.2,13.1 44.1,13.1 44.1,12.6L44.1,2.7C44.1,1.9 44.4,1.3 45.2,0.9C45.4,0.8 45.7,0.8 46,0.7C47.3,0.7 48.5,0.7 49.8,0.7C50.8,0.7 51.5,1.2 51.7,2.3C51.7,2.6 51.8,2.8 51.8,3.1C51.8,4 51.7,4.9 51.7,5.7C51.7,7.6 51.7,9.4 51.8,11.3C51.8,11.7 51.8,12 51.8,12.4C51.8,12.9 51.8,13 51.3,13C50,13.1 49,13.1 47.9,13.1L47.9,13.1Z"/>
            <path d="M65.7,4.5L65.7,12.8C65.7,13.2 65.6,13.2 65.3,13.2L58.5,13.2C58.2,13.2 58.1,13.1 58.1,12.8L58.1,2.5C58.1,1.9 58.4,1.5 58.9,1.3C59.2,1.2 59.5,1.1 59.8,1.1C61.1,1.1 62.4,1.1 63.7,1.1C64.6,1.1 65.5,1.6 65.5,2.7C65.6,3.1 65.6,3.8 65.7,4.5C65.6,4.5 65.6,4.5 65.7,4.5Z"/>
            <path d="M79.7,8.4L79.7,12.7C79.7,13.1 79.7,13.1 79.3,13.1L72.5,13.1C72.3,13.1 72.2,13 72.2,12.8L72.2,2.6C72.2,1.8 73,1 73.7,1C75.2,1 76.7,1 78.2,1C78.8,1 79.6,1.6 79.7,2.4L79.7,8.4Z"/>
        </g>
    </g>
</svg>
